<?xml version="1.0" encoding="utf-8"?>
<!-- Generator: Adobe Illustrator 20.1.0, SVG Export Plug-In . SVG Version: 6.00 Build 0)  -->
<svg version="1.1" xmlns="http://www.w3.org/2000/svg" xmlns:xlink="http://www.w3.org/1999/xlink" x="0px" y="0px"
	 viewBox="0 0 1000 800" style="enable-background:new 0 0 1000 800;" xml:space="preserve">
<style type="text/css">
	.st0{fill:url(#SVGID_1_);}
	.st1{fill:url(#SVGID_2_);}
	.st2{fill:url(#SVGID_3_);}
	.st3{fill:url(#SVGID_4_);}
	.st4{fill:url(#SVGID_5_);}
	.st5{fill:url(#SVGID_6_);}
	.st6{fill:url(#SVGID_7_);}
	.st7{fill:url(#SVGID_8_);}
	.st8{fill:url(#SVGID_9_);}
</style>
<g id="Extras">
</g>
<g id="Client_Info">
</g>
<g id="Artwork">
	<g>
		<g>
			
				<linearGradient id="SVGID_1_" gradientUnits="userSpaceOnUse" x1="255.586" y1="-222.0269" x2="334.4646" y2="-85.4052" gradientTransform="matrix(0 -1 1 0 304.9713 695.0286)">
				<stop  offset="0" style="stop-color:#50C8EC"/>
				<stop  offset="1" style="stop-color:#41A5DD"/>
			</linearGradient>
			<path class="st0" d="M108.8,327.2c0,15,7.8,28.1,19.5,35.7c12,8.1,19.8,21.8,19.8,37.3c0,14.3-6.7,27.1-17.1,35.3
				c-13.2,7.2-22.2,21.2-22.2,37.3c0,23.5,19,42.5,42.5,42.5c23.5,0,42.5-19,42.5-42.5c0-15.1-7.9-28.4-19.8-35.9
				c-11.5-8.2-19-21.5-19-36.7c0-15.5,7.9-29.2,19.8-37.3l-0.1-0.2c11.5-7.6,19.1-20.6,19.1-35.5c0-23.5-19-42.5-42.5-42.5
				C127.8,284.7,108.8,303.8,108.8,327.2z"/>
			<g>
				
					<linearGradient id="SVGID_2_" gradientUnits="userSpaceOnUse" x1="276.7013" y1="-235.852" x2="313.3455" y2="-172.3824" gradientTransform="matrix(0 -1 1 0 304.9713 695.0286)">
					<stop  offset="0" style="stop-color:#000000"/>
					<stop  offset="1" style="stop-color:#3D3D3E"/>
				</linearGradient>
				<path class="st1" d="M100.9,363.4c20.2,0,36.6,16.4,36.6,36.6c0,20.2-16.4,36.6-36.6,36.6c-20.2,0-36.7-16.4-36.7-36.6
					C64.2,379.8,80.6,363.4,100.9,363.4z"/>
				
					<linearGradient id="SVGID_3_" gradientUnits="userSpaceOnUse" x1="276.7013" y1="-135.0482" x2="313.3455" y2="-71.5786" gradientTransform="matrix(0 -1 1 0 304.9713 695.0286)">
					<stop  offset="0" style="stop-color:#000000"/>
					<stop  offset="1" style="stop-color:#3D3D3E"/>
				</linearGradient>
				<path class="st2" d="M201.7,363.4c20.2,0,36.6,16.4,36.6,36.6c0,20.2-16.4,36.6-36.6,36.6c-20.2,0-36.7-16.4-36.7-36.6
					C165,379.8,181.4,363.4,201.7,363.4z"/>
			</g>
		</g>
		<linearGradient id="SVGID_4_" gradientUnits="userSpaceOnUse" x1="308.0588" y1="325.9481" x2="308.0588" y2="474.1594">
			<stop  offset="0" style="stop-color:#000000"/>
			<stop  offset="1" style="stop-color:#3D3D3E"/>
		</linearGradient>
		<path class="st3" d="M265.8,325.9h84.5v29.9h-49.9v27.3h46.5V412h-46.5v31.9h49.9v30.3h-84.5V325.9z"/>
		<linearGradient id="SVGID_5_" gradientUnits="userSpaceOnUse" x1="550.3779" y1="325.9481" x2="550.3779" y2="474.1594">
			<stop  offset="0" style="stop-color:#000000"/>
			<stop  offset="1" style="stop-color:#3D3D3E"/>
		</linearGradient>
		<path class="st4" d="M508.1,325.9h84.5v29.9h-49.9v27.3h46.5V412h-46.5v31.9h49.9v30.3h-84.5V325.9z"/>
		<linearGradient id="SVGID_6_" gradientUnits="userSpaceOnUse" x1="430.1166" y1="325.9481" x2="430.1166" y2="474.1594">
			<stop  offset="0" style="stop-color:#000000"/>
			<stop  offset="1" style="stop-color:#3D3D3E"/>
		</linearGradient>
		<path class="st5" d="M376.1,325.9h37.1l16.4,97.4l16.9-97.4h37.6l-37.6,148.2h-34.2L376.1,325.9z"/>
		<linearGradient id="SVGID_7_" gradientUnits="userSpaceOnUse" x1="672.4402" y1="325.9481" x2="672.4402" y2="474.1594">
			<stop  offset="0" style="stop-color:#000000"/>
			<stop  offset="1" style="stop-color:#3D3D3E"/>
		</linearGradient>
		<path class="st6" d="M626.8,325.9h36.5l9.1,43.6l9.3-43.6H719l-22.8,66l29.1,82.2h-38.6L672.4,415l-14.6,59.2h-38.2l29.4-82.2
			L626.8,325.9z"/>
		<linearGradient id="SVGID_8_" gradientUnits="userSpaceOnUse" x1="774.9513" y1="325.9481" x2="774.9513" y2="474.1594">
			<stop  offset="0" style="stop-color:#000000"/>
			<stop  offset="1" style="stop-color:#3D3D3E"/>
		</linearGradient>
		<path class="st7" d="M757.5,325.9h34.8v148.2h-34.8V325.9z"/>
		<linearGradient id="SVGID_9_" gradientUnits="userSpaceOnUse" x1="880.701" y1="323.5032" x2="880.701" y2="476.4968">
			<stop  offset="0" style="stop-color:#000000"/>
			<stop  offset="1" style="stop-color:#3D3D3E"/>
		</linearGradient>
		<path class="st8" d="M877.9,323.5c17.9,0,32,6.8,42.4,20.3c10.3,13.5,15.5,32,15.5,55.5c0,23.5-5.2,42.3-15.6,56.3
			c-10.4,14-23.9,21-40.5,21c-17.2,0-30.5-7.3-39.9-21.8c-9.4-14.5-14.1-32.6-14.1-54.3c0-15,2.3-28.5,6.9-40.4
			c4.6-11.9,11-21,19.3-27.2C860.1,326.6,868.8,323.5,877.9,323.5z M881.6,354.7c-6.9,0-12.3,4-15.9,12c-3.7,8-5.5,18.9-5.5,32.8
			c0,14.1,1.8,25.2,5.4,33.2c3.6,8,8.5,12.1,14.8,12.1c6.2,0,11.2-4.1,15-12.4c3.8-8.3,5.6-19.3,5.6-33.1c0-14.3-1.9-25.3-5.7-33
			C891.5,358.6,886.9,354.7,881.6,354.7z"/>
	</g>
</g>
</svg>
